<svg width="350" height="269" viewBox="0 0 350 269" fill="none" xmlns="http://www.w3.org/2000/svg">
<rect x="1" y="1" width="348" height="267" rx="3" fill="url(#paint0_linear_715_330)" stroke="#83837F" stroke-width="2"/>
<rect x="1" y="1" width="348" height="25" rx="1" fill="url(#paint1_linear_715_330)" stroke="#84837F" stroke-width="2"/>
<rect x="1" y="178" width="348" height="74" rx="1" fill="url(#paint2_linear_715_330)" stroke="#84837F" stroke-width="2"/>
<rect x="27" y="191" width="48" height="48" rx="1" fill="url(#paint3_linear_715_330)" stroke="#84837F" stroke-width="2"/>
<rect x="89" y="191" width="48" height="48" rx="1" fill="url(#paint4_linear_715_330)" stroke="#84837F" stroke-width="2"/>
<rect x="151" y="191" width="48" height="48" rx="1" fill="url(#paint5_linear_715_330)" stroke="#84837F" stroke-width="2"/>
<rect x="213" y="191" width="48" height="48" rx="1" fill="url(#paint6_linear_715_330)" stroke="#84837F" stroke-width="2"/>
<rect x="275" y="191" width="48" height="48" rx="1" fill="url(#paint7_linear_715_330)" stroke="#84837F" stroke-width="2"/>
<rect x="146" y="124" width="58" height="8" rx="1" fill="url(#paint8_linear_715_330)" stroke="#84837F" stroke-width="2"/>
<defs>
<linearGradient id="paint0_linear_715_330" x1="175" y1="269" x2="175" y2="0" gradientUnits="userSpaceOnUse">
<stop stop-color="#151515"/>
<stop offset="1" stop-color="#151515" stop-opacity="0"/>
</linearGradient>
<linearGradient id="paint1_linear_715_330" x1="175" y1="27" x2="175" y2="0" gradientUnits="userSpaceOnUse">
<stop stop-color="#151515"/>
<stop offset="1" stop-color="#151515" stop-opacity="0"/>
</linearGradient>
<linearGradient id="paint2_linear_715_330" x1="175" y1="253" x2="175" y2="177" gradientUnits="userSpaceOnUse">
<stop stop-color="#151515"/>
<stop offset="1" stop-color="#151515" stop-opacity="0"/>
</linearGradient>
<linearGradient id="paint3_linear_715_330" x1="51" y1="240" x2="51" y2="190" gradientUnits="userSpaceOnUse">
<stop stop-color="#151515"/>
<stop offset="1" stop-color="#151515" stop-opacity="0"/>
</linearGradient>
<linearGradient id="paint4_linear_715_330" x1="113" y1="240" x2="113" y2="190" gradientUnits="userSpaceOnUse">
<stop stop-color="#151515"/>
<stop offset="1" stop-color="#151515" stop-opacity="0"/>
</linearGradient>
<linearGradient id="paint5_linear_715_330" x1="175" y1="240" x2="175" y2="190" gradientUnits="userSpaceOnUse">
<stop stop-color="#151515"/>
<stop offset="1" stop-color="#151515" stop-opacity="0"/>
</linearGradient>
<linearGradient id="paint6_linear_715_330" x1="237" y1="240" x2="237" y2="190" gradientUnits="userSpaceOnUse">
<stop stop-color="#151515"/>
<stop offset="1" stop-color="#151515" stop-opacity="0"/>
</linearGradient>
<linearGradient id="paint7_linear_715_330" x1="299" y1="240" x2="299" y2="190" gradientUnits="userSpaceOnUse">
<stop stop-color="#151515"/>
<stop offset="1" stop-color="#151515" stop-opacity="0"/>
</linearGradient>
<linearGradient id="paint8_linear_715_330" x1="175" y1="133" x2="175" y2="123" gradientUnits="userSpaceOnUse">
<stop stop-color="#151515"/>
<stop offset="1" stop-color="#151515" stop-opacity="0"/>
</linearGradient>
</defs>
</svg>
