<svg width="70" height="58" viewBox="0 0 70 58" fill="none" xmlns="http://www.w3.org/2000/svg">
<path d="M28.9658 58C12.9938 58 0 44.9908 0 29.0002C0 13.0092 12.9938 0 28.9658 0C39.2717 0 48.8838 5.55271 54.0498 14.4908L41.5141 21.7536C38.9287 17.2794 34.12 14.4999 28.9658 14.4999C20.9798 14.4999 14.4827 21.0047 14.4827 29.0002C14.4827 36.9953 20.9798 43.5001 28.9658 43.5001C34.1203 43.5001 38.929 40.7206 41.5148 36.2458L54.0505 43.5081C48.8845 52.4473 39.2724 58 28.9658 58Z" fill="#669AD3"/>
<path d="M57.9309 27.3903H54.7122V24.1678H51.4943V27.3903H48.2757V30.6124H51.4943V33.8348H54.7122V30.6124H57.9309V27.3903ZM70 27.3903H66.7814V24.1678H63.5635V27.3903H60.3448V30.6124H63.5635V33.8348H66.7814V30.6124H70V27.3903Z" fill="#669AD3"/>
</svg>
