<svg width="70" height="22" viewBox="0 0 70 22" fill="none" xmlns="http://www.w3.org/2000/svg">
<path d="M69.5416 15.0221C69.4366 15.0221 69.3316 15.0907 69.2616 15.2622C68.5581 17.2544 67.5746 18.4579 66.7696 18.4579C66.3146 18.4579 66.1396 17.9436 66.1396 17.1892C66.1396 15.2279 67.3296 11.0686 67.9246 9.14495C67.9946 8.90492 68.0296 8.69919 68.0296 8.52774C68.0296 7.97569 67.7146 7.69794 66.9446 7.69794C66.1396 7.69794 65.2261 8.00655 64.3826 9.48784C64.1026 8.18142 63.1926 7.62936 61.9256 7.62936C60.4906 7.62936 59.0836 8.5586 57.9286 10.0365C56.7701 11.5143 55.4016 11.9978 54.3831 11.7544C55.1181 10.0056 55.3981 8.66147 55.3981 7.69794C55.3981 6.15492 54.6281 5.22569 53.3681 5.22569C51.4711 5.22569 50.3826 7.01216 50.3826 8.86721C50.3826 10.3108 51.0476 11.7887 52.5246 12.5122C51.2961 15.2279 49.5076 17.7036 48.8041 17.7036C47.9291 17.7036 47.6491 13.4757 47.7191 10.4479C47.7541 8.73348 47.8941 8.63061 47.8941 8.11284C47.8941 7.80424 47.6841 7.59851 46.8756 7.59851C45.0136 7.59851 44.4186 9.14152 44.3486 10.9314C44.3136 11.6172 44.2086 12.2687 44.0336 12.9236C43.2636 15.6393 41.6466 17.7378 40.5931 17.7378C40.1031 17.7378 39.9631 17.2578 39.9631 16.6372C39.9631 14.6758 41.0831 12.2036 41.0831 10.1051C41.0831 8.56203 40.3831 7.59507 39.0881 7.59507C37.5411 7.59507 35.5426 9.38498 33.6141 12.7179C34.2441 10.1736 34.4891 7.70137 32.6306 7.70137C32.2106 7.70137 31.8244 7.80424 31.4721 8.00998C31.3528 8.06408 31.2526 8.15158 31.1841 8.26143C31.1156 8.37127 31.0818 8.49855 31.0871 8.62718C31.2621 11.3429 28.8401 18.3208 26.5616 18.3208C26.1416 18.3208 25.9316 17.875 25.9316 17.1549C25.9316 15.1936 27.1216 11.0343 27.7166 9.10723C27.782 8.89583 27.8173 8.6766 27.8216 8.45574C27.8216 7.9414 27.5066 7.66708 26.7366 7.66708C25.9316 7.66708 25.0181 7.97569 24.1745 9.45013C23.8595 8.14713 22.9845 7.59851 21.7175 7.59851C19.649 7.59851 17.367 9.72444 16.3485 12.5122C14.9835 16.2257 12.2815 19.8329 8.59602 19.8329C5.26401 19.8329 3.50701 17.1172 3.50701 12.8208C3.50701 6.60069 8.17602 1.54645 11.613 1.54645C13.2615 1.54645 14.035 2.57513 14.035 4.15929C14.035 6.08292 12.95 6.94358 12.95 7.69794C12.95 7.90368 13.125 8.1437 13.51 8.1437C15.015 8.1437 16.772 6.42924 16.772 4.05642C16.772 1.68361 14.875 0 11.438 0C5.71901 0 0 5.60287 0 12.8242C0 18.5608 2.87701 22 7.86102 22C11.263 22 14.245 19.4214 15.8235 16.3971C15.9985 18.9071 17.157 20.2101 18.9455 20.2101C20.524 20.2101 21.7875 19.2843 22.771 17.6693C23.156 19.3494 24.136 20.1758 25.4381 20.1758C26.9081 20.1758 28.1751 19.25 29.3301 17.5664C29.3301 18.9037 29.6101 20.1758 30.8071 20.1758C31.3671 20.1758 32.0321 20.0387 32.1371 19.5586C33.4006 14.5044 36.4911 10.3451 37.4361 10.3451C37.7161 10.3451 37.7861 10.6194 37.7861 10.928C37.7861 12.3064 36.8061 15.125 36.8061 16.9115C36.8061 18.8728 37.6461 20.1415 39.4031 20.1415C41.3316 20.1415 43.2951 17.8407 44.5936 14.4358C45.0136 17.6007 45.8921 20.1415 47.2606 20.1415C48.9441 20.1415 51.9961 16.6372 53.8231 12.9236C54.5231 13.0265 55.6116 12.9922 56.6651 12.2721C56.2101 13.3694 55.9651 14.5729 55.9651 15.7422C55.9651 19.1814 57.6451 20.1415 59.0836 20.1415C60.6621 20.1415 61.9256 19.2157 62.9091 17.6007C63.2241 19.0408 64.0641 20.1072 65.5761 20.1072C67.9281 20.1072 69.9966 17.7378 69.9966 15.7765C70.0316 15.365 69.7866 15.0221 69.5416 15.0221ZM20.419 18.2865C19.474 18.2865 19.089 17.3607 19.089 15.9479C19.089 13.51 20.804 9.41926 22.596 9.41926C23.3661 9.41926 23.681 10.3108 23.681 11.4458C23.681 13.9214 22.071 18.2865 20.419 18.2865ZM53.1546 11C52.5946 10.3485 52.3846 9.41926 52.3846 8.62718C52.3846 7.63279 52.7696 6.80642 53.1896 6.80642C53.6096 6.80642 53.7846 7.21789 53.7846 7.8351C53.7496 8.79863 53.3996 10.2765 53.1546 11ZM60.5571 18.2865C59.6121 18.2865 59.2271 17.1892 59.2271 15.9479C59.2271 13.5786 60.9421 9.41926 62.7341 9.41926C63.5041 9.41926 63.7841 10.3108 63.7841 11.4458C63.8191 13.9214 62.2441 18.2865 60.5571 18.2865Z" fill="url(#paint0_linear_776_1984)"/>
<defs>
<linearGradient id="paint0_linear_776_1984" x1="0" y1="11" x2="70" y2="11" gradientUnits="userSpaceOnUse">
<stop stop-color="#24C2CE"/>
<stop offset="1" stop-color="#742EF6"/>
</linearGradient>
</defs>
</svg>
