<svg width="47" height="70" viewBox="0 0 47 70" fill="none" xmlns="http://www.w3.org/2000/svg">
<path d="M11.75 0H23.5V23.3333H11.75C8.63371 23.3333 5.64505 22.1042 3.44149 19.9162C1.23794 17.7283 0 14.7609 0 11.6667C0 8.57247 1.23794 5.60501 3.44149 3.41709C5.64505 1.22916 8.63371 0 11.75 0Z" fill="#F4511E"/>
<path d="M35.25 23.3333H23.5V0H35.25C38.3663 0 41.355 1.22916 43.5585 3.41709C45.7621 5.60501 47 8.57247 47 11.6667C47 14.7609 45.7621 17.7283 43.5585 19.9162C41.355 22.1042 38.3663 23.3333 35.25 23.3333Z" fill="#FF8A65"/>
<path d="M23.5 35C23.5 41.4433 28.7607 46.6667 35.25 46.6667C41.7393 46.6667 47 41.4433 47 35C47 28.5567 41.7393 23.3333 35.25 23.3333C28.7607 23.3333 23.5 28.5567 23.5 35Z" fill="#29B6F6"/>
<path d="M11.75 23.3333H23.5V46.6667H11.75C8.63371 46.6667 5.64505 45.4375 3.44149 43.2496C1.23794 41.0617 0 38.0942 0 35C0 31.9058 1.23794 28.9383 3.44149 26.7504C5.64505 24.5625 8.63371 23.3333 11.75 23.3333Z" fill="#7C4DFF"/>
<path d="M11.75 46.6667H23.5V58.3333C23.5 61.4275 22.2621 64.395 20.0585 66.5829C17.855 68.7708 14.8663 70 11.75 70C8.63371 70 5.64505 68.7708 3.44149 66.5829C1.23794 64.395 0 61.4275 0 58.3333C0 55.2391 1.23794 52.2717 3.44149 50.0838C5.64505 47.8958 8.63371 46.6667 11.75 46.6667Z" fill="#00E676"/>
</svg>
