<svg width="70" height="70" viewBox="0 0 70 70" fill="none" xmlns="http://www.w3.org/2000/svg">
<path d="M62 0C66.4183 0 70 3.58172 70 8V62C70 66.4183 66.4183 70 62 70H8C3.58172 70 2.41604e-08 66.4183 0 62V8C0 3.58172 3.58172 2.41596e-08 8 0H62ZM52.3594 31.9229C46.7795 31.9229 43.2082 35.4936 43.208 40.1807C43.208 45.2695 46.1993 47.6805 50.708 49.5996L52.2695 50.2695C55.1264 51.519 56.8223 52.2784 56.8223 54.4209C56.8221 56.2064 55.1715 57.501 52.582 57.501C50.7222 57.501 49.3506 56.9148 48.2607 55.9688C47.0313 54.9016 45.2976 54.3572 43.8887 55.1729L43.7871 55.2314C42.4101 56.0288 41.8648 57.8012 42.9111 59C45.0059 61.3999 48.2541 63.0361 52.7158 63.0361C58.6528 63.0361 63.0723 59.956 63.0723 54.3311C63.0722 49.1086 60.0813 46.7875 54.7695 44.5107L53.207 43.8418C50.5288 42.6809 49.3682 41.9216 49.3682 40.0469C49.3682 38.5294 50.5291 37.3691 52.3594 37.3691C53.1216 37.3692 53.7697 37.5076 54.3457 37.8154C55.808 38.597 57.555 39.2895 58.9502 38.3936C60.2354 37.5682 60.6932 35.8349 59.6475 34.7217C57.7762 32.73 55.3931 31.9229 52.3594 31.9229ZM34.6895 32.2803C33.0327 32.2803 31.6895 33.6235 31.6895 35.2803V53.5283C31.6894 56.6526 30.395 57.456 28.3418 57.4561C27.4103 57.4561 26.7146 57.1776 26.1455 56.7197C24.8266 55.6586 23.126 54.9673 21.6777 55.8438L21.5488 55.9219C20.2342 56.7175 19.6927 58.4215 20.6758 59.6025C22.3489 61.6122 24.9025 63.0352 28.6094 63.0352C34.1449 63.0351 37.9395 60.0887 37.9395 53.6162V35.2803C37.9395 33.6236 36.5961 32.2805 34.9395 32.2803H34.6895Z" fill="#F3C02F"/>
</svg>
