<svg width="70" height="52" viewBox="0 0 70 52" fill="none" xmlns="http://www.w3.org/2000/svg">
<path d="M0 50.3628V0.818366C0 0.481179 0.145421 0.288889 0.484888 0.288889C1.30879 0.288889 2.08452 0.288888 3.19926 0.240589C4.36262 0.19229 5.57461 0.192292 6.8834 0.144444C8.19219 0.0961457 9.59777 0.0961437 11.1006 0.047845C12.603 -2.17593e-06 14.0572 0 15.5114 0C19.4864 0 22.7824 0.48118 25.4973 1.49229C27.9305 2.31329 30.1493 3.66201 31.9926 5.44059C33.5542 6.99745 34.761 8.86928 35.5313 10.9295C36.2584 12.9517 36.646 15.0222 36.646 17.1889C36.646 21.3296 35.6766 24.7481 33.7376 27.4444C31.7985 30.1406 29.0841 32.1628 25.9335 33.3184C22.637 34.5222 19.0015 34.9556 15.027 34.9556C13.8636 34.9556 13.0879 34.9556 12.603 34.9073C12.1181 34.859 11.4396 34.859 10.5189 34.859V50.3145C10.5671 50.6517 10.3249 50.9406 9.98541 50.9889H0.581684C0.194047 50.9889 0 50.7961 0 50.3628ZM10.5671 9.58118V25.759C11.246 25.8073 11.8759 25.8556 12.4576 25.8556H15.027C16.9174 25.8556 18.8079 25.5667 20.6011 24.9889C22.1526 24.5556 23.5095 23.6406 24.5761 22.4367C25.594 21.2333 26.0789 19.5961 26.0789 17.4778C26.1244 15.9731 25.7376 14.4866 24.9637 13.1923C24.1398 11.9406 22.9765 10.9778 21.5709 10.4478C19.7772 9.72562 17.8381 9.43674 15.8509 9.48503C14.5907 9.48503 13.4755 9.48503 12.5548 9.53333C11.585 9.48503 10.9066 9.53333 10.5671 9.58118ZM66.8935 22.8222C65.4393 22.0517 63.8883 21.5222 62.2401 21.185C60.4464 20.8 58.6532 20.559 56.8109 20.559C55.8416 20.5111 54.8236 20.6556 53.9025 20.8961C53.2726 21.0406 52.7391 21.3778 52.4001 21.859C52.1574 22.2444 52.012 22.7256 52.012 23.159C52.012 23.5923 52.206 24.0256 52.4969 24.4111C52.9331 24.9406 53.5148 25.3739 54.1451 25.7111C55.269 26.2891 56.4172 26.8192 57.5866 27.3C60.2042 28.1667 62.725 29.3701 65.0517 30.8145C66.6513 31.8256 67.9601 33.1739 68.8808 34.8111C69.6565 36.3517 70.0442 38.0367 69.996 39.7701C70.0442 42.0333 69.3657 44.2961 68.1055 46.1739C66.7534 48.0959 64.8668 49.5849 62.6763 50.459C60.301 51.4701 57.3926 52 53.9025 52C51.673 52 49.4917 51.8073 47.3104 51.3739C45.6007 51.0807 43.938 50.5626 42.3661 49.8333C42.0266 49.6406 41.7844 49.3034 41.8325 48.9184V40.5406C41.8325 40.3961 41.8812 40.2034 42.0266 40.1073C42.172 40.0111 42.3174 40.059 42.4629 40.1556C44.3533 41.2628 46.3406 42.0333 48.4737 42.5145C50.3156 42.9961 52.2547 43.2367 54.1933 43.2367C56.0356 43.2367 57.3444 42.9961 58.2169 42.5628C58.9922 42.2256 59.5257 41.4073 59.5257 40.5406C59.5257 39.8667 59.1376 39.2406 58.3623 38.6145C57.5866 37.9889 55.987 37.2667 53.6116 36.3517C51.1752 35.4987 48.8613 34.3333 46.7287 32.885C45.2095 31.8099 43.9509 30.4117 43.0445 28.7923C42.2688 27.2517 41.8812 25.5667 41.9298 23.8812C41.9298 21.8111 42.5115 19.8367 43.5776 18.0556C44.7896 16.1295 46.5833 14.5889 48.6673 13.6256C50.9459 12.4701 53.8057 11.9406 57.2471 11.9406C59.2349 11.9406 61.2708 12.085 63.258 12.3739C64.7122 12.5667 66.1178 12.9517 67.4266 13.4812C67.6206 13.5295 67.8147 13.7222 67.9115 13.9145C67.9601 14.1073 68.0083 14.3 68.0083 14.4923V22.3406C68.0083 22.5333 67.9115 22.7256 67.7661 22.8222C67.3298 22.9184 67.0876 22.9184 66.8935 22.8222Z" fill="#3AABFF"/>
</svg>
