<svg width="70" height="70" viewBox="0 0 70 70" fill="none" xmlns="http://www.w3.org/2000/svg">
<path d="M34.7478 0C16.9774 0 18.087 7.74658 18.087 7.74658L18.1067 15.7723H35.0647V18.1818H11.3713C11.3713 18.1818 0 16.8854 0 34.9094C0 52.9338 9.92513 52.2946 9.92513 52.2946H15.8484V43.9306C15.8484 43.9306 15.5291 33.9535 25.6151 33.9535H42.4344C42.4344 33.9535 51.884 34.107 51.884 24.7731V9.33999C51.884 9.33999 53.3191 0 34.7478 0ZM25.3972 5.39712C25.7979 5.39676 26.1948 5.47583 26.5651 5.62982C26.9354 5.78381 27.2718 6.00968 27.5552 6.29452C27.8386 6.57936 28.0633 6.91757 28.2164 7.2898C28.3696 7.66203 28.4483 8.06097 28.4479 8.46379C28.4483 8.86662 28.3696 9.26556 28.2164 9.63779C28.0633 10.01 27.8386 10.3482 27.5552 10.6331C27.2718 10.9179 26.9354 11.1438 26.5651 11.2978C26.1948 11.4518 25.7979 11.5308 25.3972 11.5305C24.9965 11.5308 24.5996 11.4518 24.2293 11.2978C23.859 11.1438 23.5226 10.9179 23.2392 10.6331C22.9559 10.3482 22.7312 10.01 22.578 9.63779C22.4248 9.26556 22.3461 8.86662 22.3465 8.46379C22.3461 8.06097 22.4248 7.66203 22.578 7.2898C22.7312 6.91757 22.9559 6.57936 23.2392 6.29452C23.5226 6.00968 23.859 5.78381 24.2293 5.62982C24.5996 5.47583 24.9965 5.39676 25.3972 5.39712Z" fill="#387EB8"/>
<path d="M35.2525 70C53.0229 70 51.9133 62.2534 51.9133 62.2534L51.8936 54.228H34.9353V51.8185H58.6287C58.6287 51.8185 70 53.1149 70 35.0904C70 17.0662 60.0749 17.7054 60.0749 17.7054H54.1516V26.0692C54.1516 26.0692 54.4709 36.0462 44.3849 36.0462H27.5656C27.5656 36.0462 18.116 35.8927 18.116 45.2269V60.6603C18.116 60.6603 16.6811 70 35.2522 70M44.6028 64.6034C44.2021 64.6038 43.8052 64.5247 43.4349 64.3707C43.0646 64.2167 42.7282 63.9909 42.4448 63.706C42.1614 63.4212 41.9368 63.083 41.7836 62.7108C41.6304 62.3385 41.5517 61.9396 41.5521 61.5368C41.5517 61.1339 41.6303 60.7349 41.7835 60.3627C41.9367 59.9904 42.1613 59.6522 42.4447 59.3673C42.7281 59.0824 43.0645 58.8565 43.4348 58.7025C43.8052 58.5485 44.202 58.4695 44.6028 58.4698C45.0035 58.4695 45.4004 58.5485 45.7707 58.7025C46.141 58.8565 46.4774 59.0824 46.7608 59.3672C47.0441 59.652 47.2688 59.9903 47.422 60.3625C47.5752 60.7347 47.6539 61.1337 47.6535 61.5365C47.6539 61.9393 47.5752 62.3382 47.422 62.7105C47.2688 63.0827 47.0441 63.4209 46.7608 63.7058C46.4774 63.9906 46.141 64.2165 45.7707 64.3705C45.4004 64.5244 45.0035 64.6038 44.6028 64.6034Z" fill="#FFE052"/>
</svg>
