<svg width="70" height="63" viewBox="0 0 70 63" fill="none" xmlns="http://www.w3.org/2000/svg">
<path d="M36.8518 4.47517C41.8123 0.687061 47.6573 -1.53881 52.5 1.25226C57.3427 4.04015 58.3355 10.2065 57.5273 16.3856C57.4297 17.1519 57.3014 17.9373 57.1423 18.7417C57.9208 19.0084 58.6664 19.29 59.3791 19.5863C65.1445 21.9805 70 25.921 70 31.5C70 37.0789 65.1445 41.0194 59.3791 43.4136C58.6642 43.71 57.9186 43.9915 57.1423 44.2582C57.3014 45.0626 57.4297 45.848 57.5273 46.6143C58.3355 52.7934 57.3427 58.9597 52.5 61.7476C47.6605 64.5387 41.8091 62.3128 36.8518 58.5279C36.2188 58.0425 35.6013 57.5374 35 57.0133C34.3785 57.5531 33.7612 58.058 33.1482 58.5279C28.1909 62.3128 22.3427 64.5387 17.5 61.7476C12.6605 58.9597 11.6677 52.7934 12.4727 46.6143C12.5774 45.8251 12.7069 45.0393 12.8609 44.2582C12.0803 43.9915 11.3336 43.71 10.6209 43.4136C4.85545 41.0194 0 37.0789 0 31.5C0 25.921 4.85545 21.9805 10.6209 19.5863C11.3358 19.29 12.0824 19.0084 12.8609 18.7417C12.7018 17.9373 12.5724 17.1519 12.4727 16.3856C11.6677 10.2065 12.6605 4.04015 17.5 1.25226C22.3395 -1.53563 28.1909 0.687061 33.1482 4.47517C33.7633 4.94087 34.3806 5.44468 35 5.9866C35.6215 5.4468 36.2388 4.94299 36.8518 4.47517ZM19.0273 45.9062C18.9318 46.4312 18.8512 46.9403 18.7855 47.4335C18.0441 53.1268 19.4409 55.5305 20.685 56.2481C21.9323 56.9657 24.7164 56.972 29.2855 53.4856C29.6953 53.1705 30.0974 52.8454 30.4914 52.5108C28.9227 50.7346 27.4454 48.8799 26.0655 46.954C23.7031 46.7241 21.354 46.3743 19.0273 45.9062ZM50.9823 45.9062C48.7847 46.3528 46.4386 46.7021 43.9441 46.954C42.4783 48.9862 41.003 50.8385 39.5182 52.5108C39.9233 52.8558 40.3242 53.1797 40.7209 53.4824C45.29 56.972 48.0773 56.9657 49.3214 56.2481C50.5686 55.5305 51.9623 53.1268 51.2209 47.4335C51.1538 46.9225 51.0742 46.4133 50.9823 45.9062ZM35 21.9741C33.1142 21.9741 31.3091 22.0281 29.5845 22.1361C28.6279 23.5755 27.6776 25.1102 26.7336 26.7402C25.8295 28.3015 24.9732 29.8899 24.1659 31.5031C24.9359 33.0484 25.7918 34.635 26.7336 36.2629C27.6755 37.8907 28.6258 39.4254 29.5845 40.867C33.1928 41.0788 36.8104 41.0788 40.4186 40.867C41.3753 39.4276 42.3245 37.8928 43.2664 36.2629C44.1715 34.7016 45.0289 33.1132 45.8373 31.5C45.0289 29.8867 44.1715 28.2983 43.2664 26.737C42.3641 25.1749 41.4144 23.6405 40.4186 22.1361C38.6145 22.0272 36.8074 21.9732 35 21.9741ZM14.5091 24.8954C14.0231 25.0689 13.5415 25.2542 13.0645 25.451C7.75091 27.6547 6.36364 30.0647 6.36364 31.5C6.36364 32.9352 7.75409 35.3452 13.0645 37.5489C13.527 37.7394 14.0085 37.9246 14.5091 38.1045C15.2671 35.8602 16.139 33.6559 17.1214 31.5C16.1401 29.344 15.2661 27.1396 14.5091 24.8954ZM55.4909 24.8954C54.7339 27.1396 53.8631 29.344 52.8818 31.5C53.9127 33.7766 54.7845 35.9866 55.4909 38.1045C55.9769 37.931 56.4585 37.7457 56.9355 37.5489C62.2491 35.3452 63.6364 32.9352 63.6364 31.5C63.6364 30.0647 62.2491 27.6579 56.9355 25.451C56.4585 25.2542 55.9769 25.0689 55.4909 24.8954ZM35 26.737C36.2658 26.737 37.4798 27.2388 38.3748 28.1321C39.2699 29.0253 39.7727 30.2367 39.7727 31.5C39.7727 32.7632 39.2699 33.9746 38.3748 34.8678C37.4798 35.7611 36.2658 36.2629 35 36.2629C33.7342 36.2629 32.5202 35.7611 31.6252 34.8678C30.7301 33.9746 30.2273 32.7632 30.2273 31.5C30.2273 30.2367 30.7301 29.0253 31.6252 28.1321C32.5202 27.2388 33.7342 26.737 35 26.737ZM20.6818 6.75184C19.4377 7.46945 18.0409 9.87314 18.7823 15.5664C18.8459 16.0618 18.9265 16.5709 19.0241 17.0937C21.2195 16.6471 23.5656 16.2978 26.0623 16.0459C27.4423 14.12 28.9195 12.2653 30.4882 10.4891C30.0942 10.1555 29.6921 9.83157 29.2823 9.51751C24.7132 6.02788 21.9291 6.03423 20.6818 6.75184ZM49.3182 6.75184C48.0741 6.03423 45.2868 6.03105 40.7177 9.51751C40.309 9.83161 39.908 10.1556 39.515 10.4891C40.9977 12.1593 42.4805 14.0169 43.9377 16.0459C46.4365 16.2978 48.7836 16.6471 50.9791 17.0937C51.071 16.5877 51.1506 16.0795 51.2177 15.5696C51.9623 9.87631 50.5655 7.46945 49.3182 6.75184Z" fill="#59C4DC"/>
</svg>
