<svg width="70" height="42" viewBox="0 0 70 42" fill="none" xmlns="http://www.w3.org/2000/svg">
<path d="M35 0C25.6667 0 19.8333 4.66667 17.5 14C21 9.33333 25.0833 7.58333 29.75 8.75C32.4118 9.41471 34.3147 11.3471 36.4206 13.4853C39.8559 16.9706 43.8235 21 52.5 21C61.8333 21 67.6667 16.3333 70 7C66.5 11.6667 62.4167 13.4167 57.75 12.25C55.0853 11.5853 53.1853 9.65294 51.0735 7.51471C47.6471 4.02941 43.6765 0 35 0ZM17.5 21C8.16667 21 2.33333 25.6667 0 35C3.5 30.3333 7.58333 28.5833 12.25 29.75C14.9118 30.4147 16.8147 32.3471 18.9235 34.4853C22.3529 37.9706 26.3235 42 35 42C44.3333 42 50.1667 37.3333 52.5 28C49 32.6667 44.9167 34.4167 40.25 33.25C37.5853 32.5853 35.6853 30.6529 33.5735 28.5147C30.1471 25.0294 26.1765 21 17.5 21Z" fill="#00BCFF"/>
</svg>
