<svg width="80" height="58" viewBox="0 0 80 58" fill="none" xmlns="http://www.w3.org/2000/svg">
<path d="M45.1956 40.862C46.1317 40.844 55.5257 30.9496 57.1076 29.2999C64.4054 21.6885 69.8258 17.953 78.6513 26.4847L80 27.8017C75.1168 33.0775 69.3272 38.4094 64.201 43.6604C59.6705 47.9325 55.5777 52.8997 50.592 56.6373C49.3332 57.581 47.254 57.8371 45.7286 57.9648C39.9209 58.4507 36.8721 53.808 33.0457 50.1942C25.5515 42.9256 27.8264 36.8873 34.8247 30.435C38.2435 33.986 41.7876 37.3431 45.1956 40.862Z" fill="#42414C"/>
<path d="M34.8247 30.435C38.2435 33.986 41.7876 37.3431 45.1956 40.862C44.3626 42.1641 37.2057 49.4597 35.441 49.5584C34.2029 50.1279 33.7467 50.1942 33.0457 50.1942C25.5515 42.9256 27.8264 36.8873 34.8247 30.435Z" fill="url(#paint0_linear_759_779)"/>
<path d="M0 30.5588C6.33479 24.5486 12.5703 17.7101 18.9047 11.6084C22.0555 8.55653 24.9189 5.2418 28.3558 2.50127C35.9062 -3.51936 41.4156 2.55734 46.6876 7.82574C49.2837 10.4901 51.5487 12.7395 51.6256 16.8211C51.6978 20.6445 48.1376 25.1434 45.4621 27.7082L45.4103 27.7574C43.5256 26.0918 41.6493 24.0392 39.8473 22.2458C38.2936 20.6995 36.1806 18.8925 34.8402 17.228C30.8091 20.0995 25.2749 26.5088 21.531 30.2613C13.3334 38.4779 8.54596 39.2521 0 30.5588Z" fill="#6CCBDB"/>
<path d="M46.6876 7.82574C49.2837 10.4901 51.5487 12.7395 51.6256 16.8211C51.6978 20.6445 48.1376 25.1434 45.4621 27.7082L45.4103 27.7574C43.5256 26.0918 41.6493 24.0392 39.8473 22.2458C38.2936 20.6995 36.1806 18.8925 34.8402 17.228C37.5766 14.5158 40.0432 11.3414 43.2297 9.13613C44.2633 8.42074 45.1511 7.98143 46.6876 7.82574Z" fill="#57A3B0"/>
<defs>
<linearGradient id="paint0_linear_759_779" x1="22.0052" y1="4.14366" x2="33.099" y2="54.9153" gradientUnits="userSpaceOnUse">
<stop stop-color="#0A0911"/>
<stop offset="1" stop-color="#161628"/>
</linearGradient>
</defs>
</svg>
